<svg xmlns="http://www.w3.org/2000/svg" width="1200" height="250" viewBox="0 0 1200 250"><defs><linearGradient id="g" x2="1" y2="1"><stop stop-color="#101e2b"/><stop offset="1" stop-color="#174550"/></linearGradient><pattern id="p" width="26" height="26" patternUnits="userSpaceOnUse"><path d="M26 0H0V26" fill="none" stroke="#b6eef0" stroke-opacity=".07"/></pattern><radialGradient id="hot"><stop stop-color="#ffb05a" stop-opacity=".95"/><stop offset=".45" stop-color="#ff6b75" stop-opacity=".7"/><stop offset="1" stop-color="#ff6b75" stop-opacity="0"/></radialGradient></defs><rect width="1200" height="250" rx="22" fill="url(#g)"/><rect width="1200" height="250" rx="22" fill="url(#p)"/><text x="64" y="68" fill="#a9e5e8" font-family="Arial,sans-serif" font-size="14" font-weight="700" letter-spacing="3">VISION SYSTEMS · NORMAL-ONLY LEARNING</text><g transform="translate(760 44)"><rect width="344" height="160" rx="14" fill="#eaf6f4" fill-opacity=".09" stroke="#a9e5e8" stroke-opacity=".55"/><g stroke="#bce9e7" stroke-opacity=".18"><path d="M57 0v160M114 0v160M171 0v160M228 0v160M285 0v160M0 40h344M0 80h344M0 120h344"/></g><path d="M99 42h58v14h-7v66c0 13-9 23-22 23s-22-10-22-23V56h-7V42Z" fill="#d8e7e1"/><path d="M128 116h28v13h-28z" fill="url(#hot)"/><circle cx="143" cy="121" r="40" fill="url(#hot)"/><path d="M119 104h44v32h-44z" fill="none" stroke="#ffbc74" stroke-width="2" stroke-dasharray="5 4"/><path d="M255 44v79m-13-65h26m-26 51h26" stroke="#88d4c5" stroke-width="4" stroke-linecap="round"/><circle cx="255" cy="144" r="13" fill="#62d4b3" fill-opacity=".85"/></g></svg>
